<mxfile host="app.diagrams.net" modified="2022-04-01T13:52:57.924Z" agent="5.0 (X11)" etag="qgXfTTCrNdc2ip1DJ3fk" version="17.2.4" type="github">
  <diagram id="C1SeUNUOKZPyod-TcnNW" name="Page-1">
    <mxGraphModel dx="864" dy="523" grid="1" gridSize="10" guides="1" tooltips="1" connect="1" arrows="1" fold="1" page="1" pageScale="1" pageWidth="827" pageHeight="1169" math="0" shadow="0">
      <root>
        <mxCell id="0" />
        <mxCell id="1" parent="0" />
        <mxCell id="6IoVu-vz7xidwQ04EuJD-1" value="&lt;font color=&quot;#0066CC&quot;&gt;&lt;b&gt;Craft-worker&lt;/b&gt;&lt;/font&gt;" style="shape=umlActor;verticalLabelPosition=bottom;verticalAlign=top;html=1;outlineConnect=0;fillColor=#dae8fc;strokeColor=#6c8ebf;strokeWidth=2;" parent="1" vertex="1">
          <mxGeometry x="40" y="340" width="30" height="60" as="geometry" />
        </mxCell>
        <mxCell id="6IoVu-vz7xidwQ04EuJD-2" value="&lt;font color=&quot;#B85450&quot;&gt;&lt;b&gt;General people&lt;/b&gt;&lt;/font&gt;" style="shape=umlActor;verticalLabelPosition=bottom;verticalAlign=top;html=1;outlineConnect=0;fillColor=#f8cecc;strokeColor=#B85450;strokeWidth=2;" parent="1" vertex="1">
          <mxGeometry x="40" y="554" width="30" height="60" as="geometry" />
        </mxCell>
        <mxCell id="6IoVu-vz7xidwQ04EuJD-3" value="&lt;font color=&quot;#990099&quot;&gt;&lt;b&gt;Administrator&lt;/b&gt;&lt;/font&gt;" style="shape=umlActor;verticalLabelPosition=bottom;verticalAlign=top;html=1;outlineConnect=0;fillColor=#e1d5e7;strokeColor=#9673a6;strokeWidth=2;" parent="1" vertex="1">
          <mxGeometry x="770" y="440" width="30" height="60" as="geometry" />
        </mxCell>
        <mxCell id="21wXZtojkiIjRj_W1PwF-1" value="" style="ellipse;whiteSpace=wrap;html=1;fillColor=#dae8fc;strokeColor=#6c8ebf;strokeWidth=2;" parent="1" vertex="1">
          <mxGeometry x="200" y="60" width="120" height="50" as="geometry" />
        </mxCell>
        <mxCell id="21wXZtojkiIjRj_W1PwF-2" value="" style="ellipse;whiteSpace=wrap;html=1;fillColor=#dae8fc;strokeColor=#6c8ebf;strokeWidth=2;" parent="1" vertex="1">
          <mxGeometry x="200" y="147.5" width="120" height="50" as="geometry" />
        </mxCell>
        <mxCell id="21wXZtojkiIjRj_W1PwF-3" value="" style="ellipse;whiteSpace=wrap;html=1;fillColor=#dae8fc;strokeColor=#6c8ebf;strokeWidth=2;" parent="1" vertex="1">
          <mxGeometry x="204" y="215" width="120" height="50" as="geometry" />
        </mxCell>
        <mxCell id="21wXZtojkiIjRj_W1PwF-4" value="" style="ellipse;whiteSpace=wrap;html=1;fillColor=#dae8fc;strokeColor=#6c8ebf;strokeWidth=2;" parent="1" vertex="1">
          <mxGeometry x="204" y="285" width="120" height="55" as="geometry" />
        </mxCell>
        <mxCell id="21wXZtojkiIjRj_W1PwF-5" value="" style="ellipse;whiteSpace=wrap;html=1;fillColor=#dae8fc;strokeColor=#6c8ebf;strokeWidth=2;" parent="1" vertex="1">
          <mxGeometry x="204" y="380" width="120" height="50" as="geometry" />
        </mxCell>
        <mxCell id="grchjJS3_pt_iHH_Tu_R-5" value="&lt;span style=&quot;font-size: 12pt ; font-family: &amp;#34;arial&amp;#34; ; color: rgb(0 , 0 , 0) ; background-color: transparent ; font-weight: 700 ; font-style: normal ; font-variant: normal ; text-decoration: none ; vertical-align: baseline&quot; id=&quot;docs-internal-guid-d9a8eea8-7fff-026f-fb4f-d4f9bcb1c07e&quot;&gt;Sign-up&lt;/span&gt;" style="text;html=1;strokeColor=none;fillColor=none;align=center;verticalAlign=middle;whiteSpace=wrap;rounded=0;fontColor=#B85450;" parent="1" vertex="1">
          <mxGeometry x="220" y="75" width="80" height="20" as="geometry" />
        </mxCell>
        <mxCell id="grchjJS3_pt_iHH_Tu_R-6" value="" style="ellipse;whiteSpace=wrap;html=1;strokeColor=#b85450;strokeWidth=2;fillColor=#f8cecc;" parent="1" vertex="1">
          <mxGeometry x="440" y="40" width="110" height="40" as="geometry" />
        </mxCell>
        <mxCell id="grchjJS3_pt_iHH_Tu_R-7" value="" style="ellipse;whiteSpace=wrap;html=1;strokeColor=#b85450;strokeWidth=2;fillColor=#f8cecc;" parent="1" vertex="1">
          <mxGeometry x="440" y="87.5" width="110" height="40" as="geometry" />
        </mxCell>
        <mxCell id="grchjJS3_pt_iHH_Tu_R-8" value="&lt;span style=&quot;font-size: 12pt ; font-family: &amp;#34;arial&amp;#34; ; color: rgb(0 , 0 , 0) ; background-color: transparent ; font-weight: 700 ; font-style: normal ; font-variant: normal ; text-decoration: none ; vertical-align: baseline&quot; id=&quot;docs-internal-guid-ee5e7e48-7fff-0333-686c-282adb7aed8b&quot;&gt;Craft-workers&lt;/span&gt;" style="text;html=1;strokeColor=none;fillColor=none;align=center;verticalAlign=middle;whiteSpace=wrap;rounded=0;fontColor=#B85450;" parent="1" vertex="1">
          <mxGeometry x="440" y="50" width="110" height="20" as="geometry" />
        </mxCell>
        <mxCell id="grchjJS3_pt_iHH_Tu_R-9" value="&lt;p dir=&quot;ltr&quot; style=&quot;line-height: 1.38 ; margin-left: 36pt ; margin-top: 0pt ; margin-bottom: 0pt&quot; id=&quot;docs-internal-guid-f657e5cc-7fff-a9fc-151d-04bddcebe516&quot;&gt;&lt;span style=&quot;font-size: 12pt ; font-family: &amp;#34;arial&amp;#34; ; color: rgb(0 , 0 , 0) ; background-color: transparent ; font-weight: 700 ; font-style: normal ; font-variant: normal ; text-decoration: none ; vertical-align: baseline&quot;&gt;Anyone&lt;/span&gt;&lt;/p&gt;" style="text;html=1;strokeColor=none;fillColor=none;align=center;verticalAlign=middle;whiteSpace=wrap;rounded=0;fontColor=#B85450;" parent="1" vertex="1">
          <mxGeometry x="440" y="92.5" width="60" height="30" as="geometry" />
        </mxCell>
        <mxCell id="grchjJS3_pt_iHH_Tu_R-10" value="" style="endArrow=none;dashed=1;html=1;rounded=0;fontColor=#B85450;entryX=0;entryY=0.5;entryDx=0;entryDy=0;strokeWidth=1.5;startArrow=open;startFill=0;" parent="1" target="grchjJS3_pt_iHH_Tu_R-8" edge="1">
          <mxGeometry width="50" height="50" relative="1" as="geometry">
            <mxPoint x="320" y="80" as="sourcePoint" />
            <mxPoint x="370" y="30" as="targetPoint" />
          </mxGeometry>
        </mxCell>
        <mxCell id="grchjJS3_pt_iHH_Tu_R-11" value="" style="endArrow=none;dashed=1;html=1;rounded=0;fontColor=#B85450;exitX=1;exitY=0.5;exitDx=0;exitDy=0;strokeWidth=1.5;entryX=0;entryY=0.5;entryDx=0;entryDy=0;startArrow=open;startFill=0;" parent="1" source="21wXZtojkiIjRj_W1PwF-1" target="grchjJS3_pt_iHH_Tu_R-9" edge="1">
          <mxGeometry width="50" height="50" relative="1" as="geometry">
            <mxPoint x="440" y="160" as="sourcePoint" />
            <mxPoint x="490" y="110" as="targetPoint" />
          </mxGeometry>
        </mxCell>
        <mxCell id="grchjJS3_pt_iHH_Tu_R-12" value="" style="ellipse;whiteSpace=wrap;html=1;strokeColor=#9673a6;strokeWidth=2;fillColor=#e1d5e7;" parent="1" vertex="1">
          <mxGeometry x="600" y="50" width="140" height="50" as="geometry" />
        </mxCell>
        <mxCell id="grchjJS3_pt_iHH_Tu_R-14" value="" style="endArrow=open;dashed=1;html=1;rounded=0;fontColor=#B85450;strokeWidth=1.5;entryX=0;entryY=0.5;entryDx=0;entryDy=0;exitX=1;exitY=0.5;exitDx=0;exitDy=0;endFill=0;" parent="1" source="grchjJS3_pt_iHH_Tu_R-8" target="grchjJS3_pt_iHH_Tu_R-12" edge="1">
          <mxGeometry width="50" height="50" relative="1" as="geometry">
            <mxPoint x="470" y="310" as="sourcePoint" />
            <mxPoint x="520" y="260" as="targetPoint" />
          </mxGeometry>
        </mxCell>
        <mxCell id="grchjJS3_pt_iHH_Tu_R-15" value="&lt;font size=&quot;1&quot;&gt;&lt;b style=&quot;font-size: 14px&quot;&gt;extend&lt;/b&gt;&lt;/font&gt;" style="text;html=1;align=center;verticalAlign=middle;whiteSpace=wrap;rounded=0;" parent="1" vertex="1">
          <mxGeometry x="354" y="40" width="60" height="30" as="geometry" />
        </mxCell>
        <mxCell id="grchjJS3_pt_iHH_Tu_R-16" value="&lt;font size=&quot;1&quot;&gt;&lt;b style=&quot;font-size: 14px&quot;&gt;extend&lt;/b&gt;&lt;/font&gt;" style="text;html=1;align=center;verticalAlign=middle;whiteSpace=wrap;rounded=0;" parent="1" vertex="1">
          <mxGeometry x="350" y="95" width="64" height="25" as="geometry" />
        </mxCell>
        <mxCell id="grchjJS3_pt_iHH_Tu_R-17" value="&lt;b&gt;administrator authorization&lt;/b&gt;" style="text;html=1;strokeColor=none;fillColor=none;align=center;verticalAlign=middle;whiteSpace=wrap;rounded=0;fontSize=14;fontColor=#000000;" parent="1" vertex="1">
          <mxGeometry x="610" y="50" width="120" height="50" as="geometry" />
        </mxCell>
        <mxCell id="grchjJS3_pt_iHH_Tu_R-18" value="" style="ellipse;whiteSpace=wrap;html=1;strokeColor=#b85450;strokeWidth=2;fillColor=#f8cecc;" parent="1" vertex="1">
          <mxGeometry x="440" y="140" width="110" height="40" as="geometry" />
        </mxCell>
        <mxCell id="grchjJS3_pt_iHH_Tu_R-19" value="" style="ellipse;whiteSpace=wrap;html=1;strokeColor=#b85450;strokeWidth=2;fillColor=#f8cecc;" parent="1" vertex="1">
          <mxGeometry x="440" y="190" width="110" height="40" as="geometry" />
        </mxCell>
        <mxCell id="grchjJS3_pt_iHH_Tu_R-20" value="" style="endArrow=none;dashed=1;html=1;rounded=0;fontSize=14;fontColor=#000000;strokeWidth=1.5;entryX=0;entryY=0.5;entryDx=0;entryDy=0;exitX=1;exitY=0.5;exitDx=0;exitDy=0;startArrow=open;startFill=0;" parent="1" source="21wXZtojkiIjRj_W1PwF-2" target="grchjJS3_pt_iHH_Tu_R-18" edge="1">
          <mxGeometry width="50" height="50" relative="1" as="geometry">
            <mxPoint x="460" y="300" as="sourcePoint" />
            <mxPoint x="510" y="250" as="targetPoint" />
          </mxGeometry>
        </mxCell>
        <mxCell id="grchjJS3_pt_iHH_Tu_R-21" value="" style="endArrow=none;dashed=1;html=1;rounded=0;fontSize=14;fontColor=#000000;strokeWidth=1.5;entryX=0;entryY=0.5;entryDx=0;entryDy=0;exitX=1;exitY=0.5;exitDx=0;exitDy=0;startArrow=open;startFill=0;" parent="1" source="21wXZtojkiIjRj_W1PwF-2" target="grchjJS3_pt_iHH_Tu_R-19" edge="1">
          <mxGeometry width="50" height="50" relative="1" as="geometry">
            <mxPoint x="460" y="300" as="sourcePoint" />
            <mxPoint x="510" y="250" as="targetPoint" />
          </mxGeometry>
        </mxCell>
        <mxCell id="grchjJS3_pt_iHH_Tu_R-22" value="&lt;font size=&quot;1&quot;&gt;&lt;b style=&quot;font-size: 14px&quot;&gt;extend&lt;/b&gt;&lt;/font&gt;" style="text;html=1;align=center;verticalAlign=middle;whiteSpace=wrap;rounded=0;" parent="1" vertex="1">
          <mxGeometry x="370" y="422.5" width="64" height="25" as="geometry" />
        </mxCell>
        <mxCell id="grchjJS3_pt_iHH_Tu_R-24" value="&lt;b&gt;Logout&lt;/b&gt;" style="text;html=1;strokeColor=none;fillColor=none;align=center;verticalAlign=middle;whiteSpace=wrap;rounded=0;fontSize=14;fontColor=#000000;" parent="1" vertex="1">
          <mxGeometry x="470" y="145" width="60" height="30" as="geometry" />
        </mxCell>
        <mxCell id="grchjJS3_pt_iHH_Tu_R-25" value="&lt;b&gt;Forget password&lt;/b&gt;" style="text;html=1;strokeColor=none;fillColor=none;align=center;verticalAlign=middle;whiteSpace=wrap;rounded=0;fontSize=14;fontColor=#000000;" parent="1" vertex="1">
          <mxGeometry x="465" y="195" width="60" height="30" as="geometry" />
        </mxCell>
        <mxCell id="grchjJS3_pt_iHH_Tu_R-28" value="&lt;div&gt;&lt;span style=&quot;font-size: 12pt ; font-family: &amp;#34;arial&amp;#34; ; color: rgb(0 , 0 , 0) ; background-color: transparent ; font-weight: 700 ; font-style: normal ; font-variant: normal ; text-decoration: none ; vertical-align: baseline&quot; id=&quot;docs-internal-guid-d9a8eea8-7fff-026f-fb4f-d4f9bcb1c07e&quot;&gt;Sign-in&lt;/span&gt;&lt;/div&gt;" style="text;html=1;strokeColor=none;fillColor=none;align=center;verticalAlign=middle;whiteSpace=wrap;rounded=0;fontColor=#B85450;" parent="1" vertex="1">
          <mxGeometry x="220" y="162.5" width="80" height="20" as="geometry" />
        </mxCell>
        <mxCell id="grchjJS3_pt_iHH_Tu_R-29" value="&lt;b&gt;include&lt;/b&gt;" style="text;html=1;strokeColor=none;fillColor=none;align=center;verticalAlign=middle;whiteSpace=wrap;rounded=0;fontSize=14;fontColor=#000000;" parent="1" vertex="1">
          <mxGeometry x="570" y="40" width="60" height="30" as="geometry" />
        </mxCell>
        <mxCell id="grchjJS3_pt_iHH_Tu_R-34" value="&lt;b&gt;Profile&lt;/b&gt;" style="text;html=1;strokeColor=none;fillColor=none;align=center;verticalAlign=middle;whiteSpace=wrap;rounded=0;fontSize=14;fontColor=#000000;" parent="1" vertex="1">
          <mxGeometry x="234" y="227.5" width="60" height="30" as="geometry" />
        </mxCell>
        <mxCell id="grchjJS3_pt_iHH_Tu_R-35" value="" style="ellipse;whiteSpace=wrap;html=1;strokeColor=#b85450;strokeWidth=2;fillColor=#f8cecc;" parent="1" vertex="1">
          <mxGeometry x="440" y="240" width="110" height="40" as="geometry" />
        </mxCell>
        <mxCell id="grchjJS3_pt_iHH_Tu_R-36" value="" style="endArrow=none;dashed=1;html=1;rounded=0;fontSize=14;fontColor=#000000;strokeWidth=1.5;entryX=0;entryY=0.5;entryDx=0;entryDy=0;exitX=1;exitY=0.5;exitDx=0;exitDy=0;startArrow=open;startFill=0;" parent="1" source="21wXZtojkiIjRj_W1PwF-3" target="grchjJS3_pt_iHH_Tu_R-35" edge="1">
          <mxGeometry width="50" height="50" relative="1" as="geometry">
            <mxPoint x="210" y="150" as="sourcePoint" />
            <mxPoint x="260" y="100" as="targetPoint" />
          </mxGeometry>
        </mxCell>
        <mxCell id="grchjJS3_pt_iHH_Tu_R-37" value="&lt;b&gt;Profile Setting&lt;/b&gt;" style="text;html=1;strokeColor=none;fillColor=none;align=center;verticalAlign=middle;whiteSpace=wrap;rounded=0;fontSize=14;fontColor=#000000;" parent="1" vertex="1">
          <mxGeometry x="445" y="245" width="100" height="30" as="geometry" />
        </mxCell>
        <mxCell id="grchjJS3_pt_iHH_Tu_R-38" value="&lt;font size=&quot;1&quot;&gt;&lt;b style=&quot;font-size: 14px&quot;&gt;extend&lt;/b&gt;&lt;/font&gt;" style="text;html=1;align=center;verticalAlign=middle;whiteSpace=wrap;rounded=0;" parent="1" vertex="1">
          <mxGeometry x="346" y="240" width="64" height="25" as="geometry" />
        </mxCell>
        <mxCell id="grchjJS3_pt_iHH_Tu_R-44" value="&lt;b&gt;View Profile&lt;/b&gt;" style="text;html=1;strokeColor=none;fillColor=none;align=center;verticalAlign=middle;whiteSpace=wrap;rounded=0;fontSize=14;fontColor=#000000;" parent="1" vertex="1">
          <mxGeometry x="209" y="302.5" width="110" height="20" as="geometry" />
        </mxCell>
        <mxCell id="grchjJS3_pt_iHH_Tu_R-48" value="&lt;b&gt;Work &lt;span style=&quot;font-family: &amp;#34;arial&amp;#34; ; color: rgb(0 , 0 , 0) ; background-color: transparent ; font-style: normal ; font-variant: normal ; text-decoration: none ; vertical-align: baseline&quot; id=&quot;docs-internal-guid-b7d664e6-7fff-4944-9143-4917c589e76c&quot;&gt;Categories&lt;/span&gt;&lt;/b&gt;" style="text;html=1;strokeColor=none;fillColor=none;align=center;verticalAlign=middle;whiteSpace=wrap;rounded=0;fontSize=14;fontColor=#000000;" parent="1" vertex="1">
          <mxGeometry x="204" y="390" width="120" height="30" as="geometry" />
        </mxCell>
        <mxCell id="grchjJS3_pt_iHH_Tu_R-51" value="" style="ellipse;whiteSpace=wrap;html=1;strokeColor=#b85450;strokeWidth=2;fillColor=#f8cecc;" parent="1" vertex="1">
          <mxGeometry x="440" y="360" width="110" height="40" as="geometry" />
        </mxCell>
        <mxCell id="grchjJS3_pt_iHH_Tu_R-52" value="" style="ellipse;whiteSpace=wrap;html=1;strokeColor=#b85450;strokeWidth=2;fillColor=#f8cecc;" parent="1" vertex="1">
          <mxGeometry x="440" y="315" width="110" height="40" as="geometry" />
        </mxCell>
        <mxCell id="grchjJS3_pt_iHH_Tu_R-54" value="" style="ellipse;whiteSpace=wrap;html=1;strokeColor=#b85450;strokeWidth=2;fillColor=#f8cecc;" parent="1" vertex="1">
          <mxGeometry x="440" y="407.5" width="110" height="40" as="geometry" />
        </mxCell>
        <mxCell id="grchjJS3_pt_iHH_Tu_R-55" value="" style="ellipse;whiteSpace=wrap;html=1;strokeColor=#b85450;strokeWidth=2;fillColor=#f8cecc;" parent="1" vertex="1">
          <mxGeometry x="440" y="460" width="110" height="40" as="geometry" />
        </mxCell>
        <mxCell id="grchjJS3_pt_iHH_Tu_R-56" value="" style="ellipse;whiteSpace=wrap;html=1;strokeColor=#b85450;strokeWidth=2;fillColor=#f8cecc;" parent="1" vertex="1">
          <mxGeometry x="440" y="510" width="110" height="40" as="geometry" />
        </mxCell>
        <mxCell id="29DSbf79sJnoU8SOsV-l-2" value="" style="endArrow=none;dashed=1;html=1;rounded=0;entryX=0;entryY=0.5;entryDx=0;entryDy=0;exitX=1;exitY=0.75;exitDx=0;exitDy=0;strokeWidth=1.5;" parent="1" source="grchjJS3_pt_iHH_Tu_R-48" target="grchjJS3_pt_iHH_Tu_R-52" edge="1">
          <mxGeometry width="50" height="50" relative="1" as="geometry">
            <mxPoint x="340" y="560" as="sourcePoint" />
            <mxPoint x="390" y="510" as="targetPoint" />
          </mxGeometry>
        </mxCell>
        <mxCell id="29DSbf79sJnoU8SOsV-l-3" value="" style="endArrow=none;dashed=1;html=1;rounded=0;entryX=0;entryY=0.5;entryDx=0;entryDy=0;exitX=1;exitY=0.75;exitDx=0;exitDy=0;strokeWidth=1.5;" parent="1" source="grchjJS3_pt_iHH_Tu_R-48" target="grchjJS3_pt_iHH_Tu_R-51" edge="1">
          <mxGeometry width="50" height="50" relative="1" as="geometry">
            <mxPoint x="340" y="560" as="sourcePoint" />
            <mxPoint x="390" y="510" as="targetPoint" />
          </mxGeometry>
        </mxCell>
        <mxCell id="29DSbf79sJnoU8SOsV-l-4" value="" style="endArrow=none;dashed=1;html=1;rounded=0;entryX=0;entryY=0.5;entryDx=0;entryDy=0;exitX=1;exitY=0.75;exitDx=0;exitDy=0;strokeWidth=1.5;" parent="1" source="grchjJS3_pt_iHH_Tu_R-48" target="grchjJS3_pt_iHH_Tu_R-54" edge="1">
          <mxGeometry width="50" height="50" relative="1" as="geometry">
            <mxPoint x="320" y="430" as="sourcePoint" />
            <mxPoint x="390" y="510" as="targetPoint" />
          </mxGeometry>
        </mxCell>
        <mxCell id="29DSbf79sJnoU8SOsV-l-5" value="" style="endArrow=none;dashed=1;html=1;rounded=0;entryX=0;entryY=0.4;entryDx=0;entryDy=0;entryPerimeter=0;exitX=1;exitY=0.75;exitDx=0;exitDy=0;strokeWidth=1.5;" parent="1" source="grchjJS3_pt_iHH_Tu_R-48" target="grchjJS3_pt_iHH_Tu_R-55" edge="1">
          <mxGeometry width="50" height="50" relative="1" as="geometry">
            <mxPoint x="340" y="560" as="sourcePoint" />
            <mxPoint x="390" y="510" as="targetPoint" />
          </mxGeometry>
        </mxCell>
        <mxCell id="29DSbf79sJnoU8SOsV-l-6" value="" style="endArrow=none;dashed=1;html=1;rounded=0;exitX=1;exitY=0.75;exitDx=0;exitDy=0;entryX=0;entryY=0.5;entryDx=0;entryDy=0;strokeWidth=1.5;" parent="1" source="grchjJS3_pt_iHH_Tu_R-48" target="grchjJS3_pt_iHH_Tu_R-56" edge="1">
          <mxGeometry width="50" height="50" relative="1" as="geometry">
            <mxPoint x="330" y="570" as="sourcePoint" />
            <mxPoint x="380" y="520" as="targetPoint" />
          </mxGeometry>
        </mxCell>
        <mxCell id="29DSbf79sJnoU8SOsV-l-7" value="" style="ellipse;whiteSpace=wrap;html=1;strokeColor=#b85450;strokeWidth=2;fillColor=#f8cecc;" parent="1" vertex="1">
          <mxGeometry x="440" y="560" width="110" height="50" as="geometry" />
        </mxCell>
        <mxCell id="29DSbf79sJnoU8SOsV-l-8" value="" style="endArrow=none;dashed=1;html=1;rounded=0;exitX=0;exitY=0.5;exitDx=0;exitDy=0;entryX=1;entryY=0.75;entryDx=0;entryDy=0;strokeWidth=1.5;" parent="1" source="29DSbf79sJnoU8SOsV-l-7" target="grchjJS3_pt_iHH_Tu_R-48" edge="1">
          <mxGeometry width="50" height="50" relative="1" as="geometry">
            <mxPoint x="450" y="610" as="sourcePoint" />
            <mxPoint x="290" y="500" as="targetPoint" />
          </mxGeometry>
        </mxCell>
        <mxCell id="ZkMdfGaGYWbonD-F4Da_-1" value="&lt;font style=&quot;font-size: 14px&quot;&gt;&lt;span style=&quot;font-family: &amp;#34;arial&amp;#34; ; color: rgb(0 , 0 , 0) ; background-color: transparent ; font-weight: 700 ; font-style: normal ; font-variant: normal ; text-decoration: none ; vertical-align: baseline&quot; id=&quot;docs-internal-guid-06c5607c-7fff-e027-40bc-780a48625a0f&quot;&gt;Kath Shilpo&lt;/span&gt;&lt;/font&gt;" style="text;html=1;strokeColor=none;fillColor=none;align=center;verticalAlign=middle;whiteSpace=wrap;rounded=0;" parent="1" vertex="1">
          <mxGeometry x="445" y="330" width="100" height="10" as="geometry" />
        </mxCell>
        <mxCell id="ZkMdfGaGYWbonD-F4Da_-2" value="&lt;font style=&quot;font-size: 14px&quot;&gt;&lt;span style=&quot;font-family: &amp;#34;arial&amp;#34; ; color: rgb(0 , 0 , 0) ; background-color: transparent ; font-weight: 700 ; font-style: normal ; font-variant: normal ; text-decoration: none ; vertical-align: baseline&quot; id=&quot;docs-internal-guid-e4ca065d-7fff-76d1-59c0-c70cfacae03e&quot;&gt;Bash shilpo&lt;/span&gt;&lt;/font&gt;" style="text;html=1;strokeColor=none;fillColor=none;align=center;verticalAlign=middle;whiteSpace=wrap;rounded=0;fontSize=14;" parent="1" vertex="1">
          <mxGeometry x="450" y="370" width="100" height="20" as="geometry" />
        </mxCell>
        <mxCell id="ZkMdfGaGYWbonD-F4Da_-4" value="&lt;font style=&quot;font-size: 14px&quot;&gt;&lt;span style=&quot;font-family: &amp;#34;arial&amp;#34; ; color: rgb(0 , 0 , 0) ; background-color: transparent ; font-weight: 700 ; font-style: normal ; font-variant: normal ; text-decoration: none ; vertical-align: baseline&quot; id=&quot;docs-internal-guid-c5cb1a11-7fff-92f5-c12f-03132aebc5e7&quot;&gt;Bet Shilpo&lt;/span&gt;&lt;/font&gt;" style="text;html=1;strokeColor=none;fillColor=none;align=center;verticalAlign=middle;whiteSpace=wrap;rounded=0;fontSize=14;" parent="1" vertex="1">
          <mxGeometry x="445" y="420" width="90" height="15" as="geometry" />
        </mxCell>
        <mxCell id="ZkMdfGaGYWbonD-F4Da_-6" value="&lt;font style=&quot;font-size: 14px&quot;&gt;&lt;span style=&quot;font-family: &amp;#34;arial&amp;#34; ; color: rgb(0 , 0 , 0) ; background-color: transparent ; font-weight: 700 ; font-style: normal ; font-variant: normal ; text-decoration: none ; vertical-align: baseline&quot; id=&quot;docs-internal-guid-1e54c604-7fff-bb8c-8ced-753b6cb01f62&quot;&gt;Mirth Shilpo &lt;/span&gt;&lt;/font&gt;" style="text;html=1;strokeColor=none;fillColor=none;align=center;verticalAlign=middle;whiteSpace=wrap;rounded=0;fontSize=14;" parent="1" vertex="1">
          <mxGeometry x="445" y="465" width="100" height="30" as="geometry" />
        </mxCell>
        <mxCell id="ZkMdfGaGYWbonD-F4Da_-7" value="&lt;font style=&quot;font-size: 14px&quot;&gt;&lt;span style=&quot;font-family: &amp;#34;arial&amp;#34; ; color: rgb(0 , 0 , 0) ; background-color: transparent ; font-weight: 700 ; font-style: normal ; font-variant: normal ; text-decoration: none ; vertical-align: baseline&quot; id=&quot;docs-internal-guid-70e00efe-7fff-971b-4688-516f0cfce340&quot;&gt;Pat shilpo&lt;/span&gt;&lt;/font&gt;" style="text;html=1;strokeColor=none;fillColor=none;align=center;verticalAlign=middle;whiteSpace=wrap;rounded=0;fontSize=14;" parent="1" vertex="1">
          <mxGeometry x="445" y="515" width="80" height="25" as="geometry" />
        </mxCell>
        <mxCell id="ZkMdfGaGYWbonD-F4Da_-8" value="&lt;div style=&quot;font-size: 13px&quot;&gt;&lt;font style=&quot;font-size: 13px&quot;&gt;&lt;span style=&quot;font-family: &amp;#34;arial&amp;#34; ; color: rgb(0 , 0 , 0) ; background-color: transparent ; font-weight: 700 ; font-style: normal ; font-variant: normal ; text-decoration: none ; vertical-align: baseline&quot; id=&quot;docs-internal-guid-2d838bbb-7fff-4a7c-e926-a074e1afc192&quot;&gt;&amp;nbsp;Nokshi Khatha &lt;br&gt;&lt;/span&gt;&lt;/font&gt;&lt;/div&gt;&lt;div style=&quot;font-size: 13px&quot;&gt;&lt;font style=&quot;font-size: 13px&quot;&gt;&lt;span style=&quot;font-family: &amp;#34;arial&amp;#34; ; color: rgb(0 , 0 , 0) ; background-color: transparent ; font-weight: 700 ; font-style: normal ; font-variant: normal ; text-decoration: none ; vertical-align: baseline&quot; id=&quot;docs-internal-guid-2d838bbb-7fff-4a7c-e926-a074e1afc192&quot;&gt;&amp;amp; Butics&lt;/span&gt;&lt;/font&gt;&lt;/div&gt;" style="text;html=1;strokeColor=none;fillColor=none;align=center;verticalAlign=middle;whiteSpace=wrap;rounded=0;fontSize=14;" parent="1" vertex="1">
          <mxGeometry x="435" y="570" width="110" height="30" as="geometry" />
        </mxCell>
        <mxCell id="ZkMdfGaGYWbonD-F4Da_-13" value="" style="ellipse;whiteSpace=wrap;html=1;strokeColor=#9673a6;strokeWidth=2;fillColor=#e1d5e7;" parent="1" vertex="1">
          <mxGeometry x="597.5" y="420" width="110" height="50" as="geometry" />
        </mxCell>
        <mxCell id="ZkMdfGaGYWbonD-F4Da_-14" value="" style="endArrow=open;dashed=1;html=1;rounded=0;fontSize=13;entryX=0;entryY=0.5;entryDx=0;entryDy=0;exitX=1;exitY=0.5;exitDx=0;exitDy=0;strokeWidth=1.5;endFill=0;" parent="1" source="grchjJS3_pt_iHH_Tu_R-52" target="ZkMdfGaGYWbonD-F4Da_-13" edge="1">
          <mxGeometry width="50" height="50" relative="1" as="geometry">
            <mxPoint x="570" y="530" as="sourcePoint" />
            <mxPoint x="620" y="480" as="targetPoint" />
          </mxGeometry>
        </mxCell>
        <mxCell id="ZkMdfGaGYWbonD-F4Da_-15" value="" style="endArrow=none;dashed=1;html=1;rounded=0;fontSize=13;entryX=0;entryY=0.5;entryDx=0;entryDy=0;exitX=0.984;exitY=0.604;exitDx=0;exitDy=0;exitPerimeter=0;strokeWidth=1.5;" parent="1" source="grchjJS3_pt_iHH_Tu_R-51" target="ZkMdfGaGYWbonD-F4Da_-13" edge="1">
          <mxGeometry width="50" height="50" relative="1" as="geometry">
            <mxPoint x="570" y="530" as="sourcePoint" />
            <mxPoint x="620" y="480" as="targetPoint" />
          </mxGeometry>
        </mxCell>
        <mxCell id="ZkMdfGaGYWbonD-F4Da_-16" value="" style="endArrow=none;dashed=1;html=1;rounded=0;fontSize=13;exitX=1;exitY=0.5;exitDx=0;exitDy=0;entryX=0;entryY=0.5;entryDx=0;entryDy=0;strokeWidth=1.5;" parent="1" source="grchjJS3_pt_iHH_Tu_R-54" target="ZkMdfGaGYWbonD-F4Da_-13" edge="1">
          <mxGeometry width="50" height="50" relative="1" as="geometry">
            <mxPoint x="570" y="530" as="sourcePoint" />
            <mxPoint x="620" y="480" as="targetPoint" />
          </mxGeometry>
        </mxCell>
        <mxCell id="ZkMdfGaGYWbonD-F4Da_-17" value="" style="endArrow=none;dashed=1;html=1;rounded=0;fontSize=13;exitX=1;exitY=0.5;exitDx=0;exitDy=0;entryX=0;entryY=0.5;entryDx=0;entryDy=0;strokeWidth=1.5;" parent="1" source="grchjJS3_pt_iHH_Tu_R-55" target="ZkMdfGaGYWbonD-F4Da_-13" edge="1">
          <mxGeometry width="50" height="50" relative="1" as="geometry">
            <mxPoint x="580" y="550" as="sourcePoint" />
            <mxPoint x="620" y="480" as="targetPoint" />
          </mxGeometry>
        </mxCell>
        <mxCell id="ZkMdfGaGYWbonD-F4Da_-18" value="" style="endArrow=none;dashed=1;html=1;rounded=0;fontSize=13;exitX=1;exitY=0.5;exitDx=0;exitDy=0;entryX=0;entryY=0.5;entryDx=0;entryDy=0;strokeWidth=1.5;" parent="1" source="grchjJS3_pt_iHH_Tu_R-56" target="ZkMdfGaGYWbonD-F4Da_-13" edge="1">
          <mxGeometry width="50" height="50" relative="1" as="geometry">
            <mxPoint x="570" y="600" as="sourcePoint" />
            <mxPoint x="620" y="550" as="targetPoint" />
          </mxGeometry>
        </mxCell>
        <mxCell id="ZkMdfGaGYWbonD-F4Da_-19" value="" style="endArrow=none;dashed=1;html=1;rounded=0;fontSize=13;exitX=1;exitY=0.5;exitDx=0;exitDy=0;entryX=0;entryY=0.5;entryDx=0;entryDy=0;strokeWidth=1.5;" parent="1" source="29DSbf79sJnoU8SOsV-l-7" target="ZkMdfGaGYWbonD-F4Da_-13" edge="1">
          <mxGeometry width="50" height="50" relative="1" as="geometry">
            <mxPoint x="570" y="600" as="sourcePoint" />
            <mxPoint x="620" y="550" as="targetPoint" />
          </mxGeometry>
        </mxCell>
        <mxCell id="ZkMdfGaGYWbonD-F4Da_-20" value="&lt;div&gt;&lt;font style=&quot;font-size: 12px&quot;&gt;&lt;b&gt;Posting Articles &lt;br&gt;&lt;/b&gt;&lt;/font&gt;&lt;/div&gt;&lt;div&gt;&lt;font style=&quot;font-size: 12px&quot;&gt;&lt;b&gt;&amp;amp; More Details&lt;/b&gt;&lt;/font&gt;&lt;/div&gt;" style="text;html=1;strokeColor=none;fillColor=none;align=center;verticalAlign=middle;whiteSpace=wrap;rounded=0;fontSize=13;" parent="1" vertex="1">
          <mxGeometry x="605" y="435" width="95" height="26.25" as="geometry" />
        </mxCell>
        <mxCell id="ZkMdfGaGYWbonD-F4Da_-21" value="&lt;b&gt;include&lt;/b&gt;" style="text;html=1;strokeColor=none;fillColor=none;align=center;verticalAlign=middle;whiteSpace=wrap;rounded=0;fontSize=14;fontColor=#000000;" parent="1" vertex="1">
          <mxGeometry x="570" y="365" width="60" height="30" as="geometry" />
        </mxCell>
        <mxCell id="ZkMdfGaGYWbonD-F4Da_-22" value="&lt;b&gt;include&lt;/b&gt;" style="text;html=1;strokeColor=none;fillColor=none;align=center;verticalAlign=middle;whiteSpace=wrap;rounded=0;fontSize=14;fontColor=#000000;" parent="1" vertex="1">
          <mxGeometry x="570" y="512.5" width="60" height="30" as="geometry" />
        </mxCell>
        <mxCell id="ZkMdfGaGYWbonD-F4Da_-23" value="" style="ellipse;whiteSpace=wrap;html=1;fillColor=#dae8fc;strokeColor=#6c8ebf;strokeWidth=2;" parent="1" vertex="1">
          <mxGeometry x="200" y="465" width="120" height="50" as="geometry" />
        </mxCell>
        <mxCell id="ZkMdfGaGYWbonD-F4Da_-24" value="" style="ellipse;whiteSpace=wrap;html=1;fillColor=#dae8fc;strokeColor=#6c8ebf;strokeWidth=2;" parent="1" vertex="1">
          <mxGeometry x="200" y="528.13" width="120" height="50" as="geometry" />
        </mxCell>
        <mxCell id="ZkMdfGaGYWbonD-F4Da_-25" value="" style="ellipse;whiteSpace=wrap;html=1;fillColor=#dae8fc;strokeColor=#6c8ebf;strokeWidth=2;" parent="1" vertex="1">
          <mxGeometry x="200" y="595" width="120" height="50" as="geometry" />
        </mxCell>
        <mxCell id="ZkMdfGaGYWbonD-F4Da_-26" value="" style="ellipse;whiteSpace=wrap;html=1;fillColor=#dae8fc;strokeColor=#6c8ebf;strokeWidth=2;" parent="1" vertex="1">
          <mxGeometry x="200" y="664" width="120" height="50" as="geometry" />
        </mxCell>
        <mxCell id="ZkMdfGaGYWbonD-F4Da_-27" value="&lt;font size=&quot;1&quot;&gt;&lt;b style=&quot;font-size: 14px&quot;&gt;Posting Product&lt;/b&gt;&lt;/font&gt;" style="text;html=1;strokeColor=none;fillColor=none;align=center;verticalAlign=middle;whiteSpace=wrap;rounded=0;fontSize=12;" parent="1" vertex="1">
          <mxGeometry x="204" y="472" width="112" height="36" as="geometry" />
        </mxCell>
        <mxCell id="ZkMdfGaGYWbonD-F4Da_-34" value="" style="ellipse;whiteSpace=wrap;html=1;strokeColor=#b85450;strokeWidth=2;fillColor=#f8cecc;" parent="1" vertex="1">
          <mxGeometry x="445" y="630" width="110" height="40" as="geometry" />
        </mxCell>
        <mxCell id="ZkMdfGaGYWbonD-F4Da_-35" value="&lt;div&gt;&lt;b&gt;Gallery,Price&lt;/b&gt;&lt;/div&gt;&lt;div&gt;&lt;b&gt;&amp;amp;Details&lt;/b&gt;&lt;/div&gt;" style="text;html=1;strokeColor=none;fillColor=none;align=center;verticalAlign=middle;whiteSpace=wrap;rounded=0;fontSize=14;" parent="1" vertex="1">
          <mxGeometry x="462.5" y="642.13" width="75" height="21.87" as="geometry" />
        </mxCell>
        <mxCell id="ZkMdfGaGYWbonD-F4Da_-36" value="" style="endArrow=open;dashed=1;html=1;rounded=0;fontSize=14;strokeWidth=1.5;entryX=0;entryY=0.5;entryDx=0;entryDy=0;exitX=1;exitY=0.5;exitDx=0;exitDy=0;endFill=0;" parent="1" source="ZkMdfGaGYWbonD-F4Da_-23" target="ZkMdfGaGYWbonD-F4Da_-34" edge="1">
          <mxGeometry width="50" height="50" relative="1" as="geometry">
            <mxPoint x="384" y="695" as="sourcePoint" />
            <mxPoint x="434" y="645" as="targetPoint" />
          </mxGeometry>
        </mxCell>
        <mxCell id="ZkMdfGaGYWbonD-F4Da_-38" value="&lt;font size=&quot;1&quot;&gt;&lt;b style=&quot;font-size: 14px&quot;&gt;extend&lt;/b&gt;&lt;/font&gt;" style="text;html=1;align=center;verticalAlign=middle;whiteSpace=wrap;rounded=0;" parent="1" vertex="1">
          <mxGeometry x="190" y="795" width="64" height="25" as="geometry" />
        </mxCell>
        <mxCell id="ZkMdfGaGYWbonD-F4Da_-39" value="&lt;b&gt;include&lt;/b&gt;" style="text;html=1;strokeColor=none;fillColor=none;align=center;verticalAlign=middle;whiteSpace=wrap;rounded=0;fontSize=14;fontColor=#000000;" parent="1" vertex="1">
          <mxGeometry x="340" y="560" width="60" height="30" as="geometry" />
        </mxCell>
        <mxCell id="ZkMdfGaGYWbonD-F4Da_-40" value="&lt;font style=&quot;font-size: 13px&quot;&gt;&lt;b&gt;Ordering Product&lt;/b&gt;&lt;/font&gt;" style="text;html=1;strokeColor=none;fillColor=none;align=center;verticalAlign=middle;whiteSpace=wrap;rounded=0;fontSize=12;" parent="1" vertex="1">
          <mxGeometry x="199" y="540" width="120" height="30" as="geometry" />
        </mxCell>
        <mxCell id="ZkMdfGaGYWbonD-F4Da_-42" value="" style="endArrow=openThin;dashed=1;html=1;rounded=0;fontSize=13;strokeWidth=1.5;exitX=1;exitY=0.5;exitDx=0;exitDy=0;entryX=0;entryY=0.5;entryDx=0;entryDy=0;endFill=0;" parent="1" source="ZkMdfGaGYWbonD-F4Da_-24" target="ZkMdfGaGYWbonD-F4Da_-34" edge="1">
          <mxGeometry width="50" height="50" relative="1" as="geometry">
            <mxPoint x="400" y="620" as="sourcePoint" />
            <mxPoint x="450" y="570" as="targetPoint" />
          </mxGeometry>
        </mxCell>
        <mxCell id="ZkMdfGaGYWbonD-F4Da_-43" value="" style="ellipse;whiteSpace=wrap;html=1;strokeColor=#b85450;strokeWidth=2;fillColor=#f8cecc;" parent="1" vertex="1">
          <mxGeometry x="445" y="674" width="110" height="40" as="geometry" />
        </mxCell>
        <mxCell id="ZkMdfGaGYWbonD-F4Da_-44" value="&lt;b&gt;&lt;font style=&quot;font-size: 14px&quot;&gt;Update Order&lt;/font&gt;&lt;/b&gt;" style="text;html=1;strokeColor=none;fillColor=none;align=center;verticalAlign=middle;whiteSpace=wrap;rounded=0;fontSize=13;" parent="1" vertex="1">
          <mxGeometry x="450" y="686" width="100" height="16" as="geometry" />
        </mxCell>
        <mxCell id="ZkMdfGaGYWbonD-F4Da_-45" value="" style="endArrow=open;dashed=1;html=1;rounded=0;fontSize=14;strokeWidth=1.5;entryX=0;entryY=0.5;entryDx=0;entryDy=0;exitX=1;exitY=0.5;exitDx=0;exitDy=0;startArrow=none;startFill=0;endFill=0;" parent="1" source="ZkMdfGaGYWbonD-F4Da_-25" target="ZkMdfGaGYWbonD-F4Da_-43" edge="1">
          <mxGeometry width="50" height="50" relative="1" as="geometry">
            <mxPoint x="340" y="580" as="sourcePoint" />
            <mxPoint x="530" y="610" as="targetPoint" />
          </mxGeometry>
        </mxCell>
        <mxCell id="ZkMdfGaGYWbonD-F4Da_-46" value="&lt;b&gt;View Order List&lt;/b&gt;" style="text;html=1;strokeColor=none;fillColor=none;align=center;verticalAlign=middle;whiteSpace=wrap;rounded=0;fontSize=14;" parent="1" vertex="1">
          <mxGeometry x="204" y="614" width="110" height="16" as="geometry" />
        </mxCell>
        <mxCell id="ZkMdfGaGYWbonD-F4Da_-50" value="&lt;b&gt;include&lt;/b&gt;" style="text;html=1;strokeColor=none;fillColor=none;align=center;verticalAlign=middle;whiteSpace=wrap;rounded=0;fontSize=14;fontColor=#000000;" parent="1" vertex="1">
          <mxGeometry x="350" y="620" width="60" height="30" as="geometry" />
        </mxCell>
        <mxCell id="ZkMdfGaGYWbonD-F4Da_-52" value="" style="endArrow=none;html=1;rounded=0;fontSize=14;strokeColor=default;strokeWidth=1.5;entryX=0;entryY=0.5;entryDx=0;entryDy=0;exitX=1;exitY=0.3333333333333333;exitDx=0;exitDy=0;exitPerimeter=0;" parent="1" source="6IoVu-vz7xidwQ04EuJD-1" target="21wXZtojkiIjRj_W1PwF-1" edge="1">
          <mxGeometry width="50" height="50" relative="1" as="geometry">
            <mxPoint x="140" y="140" as="sourcePoint" />
            <mxPoint x="190" y="90" as="targetPoint" />
          </mxGeometry>
        </mxCell>
        <mxCell id="ZkMdfGaGYWbonD-F4Da_-53" value="" style="endArrow=none;html=1;rounded=0;fontSize=14;strokeColor=default;strokeWidth=1.5;exitX=0;exitY=0.3333333333333333;exitDx=0;exitDy=0;exitPerimeter=0;entryX=0.75;entryY=1;entryDx=0;entryDy=0;" parent="1" source="6IoVu-vz7xidwQ04EuJD-3" target="grchjJS3_pt_iHH_Tu_R-17" edge="1">
          <mxGeometry width="50" height="50" relative="1" as="geometry">
            <mxPoint x="740" y="270" as="sourcePoint" />
            <mxPoint x="680" y="120" as="targetPoint" />
          </mxGeometry>
        </mxCell>
        <mxCell id="ZkMdfGaGYWbonD-F4Da_-54" value="" style="endArrow=none;html=1;rounded=0;fontSize=14;strokeColor=default;strokeWidth=1.5;entryX=0;entryY=0.3333333333333333;entryDx=0;entryDy=0;entryPerimeter=0;exitX=1.001;exitY=0.438;exitDx=0;exitDy=0;exitPerimeter=0;" parent="1" source="21wXZtojkiIjRj_W1PwF-4" target="6IoVu-vz7xidwQ04EuJD-3" edge="1">
          <mxGeometry width="50" height="50" relative="1" as="geometry">
            <mxPoint x="590" y="302.5" as="sourcePoint" />
            <mxPoint x="640" y="252.5" as="targetPoint" />
            <Array as="points">
              <mxPoint x="710" y="310" />
            </Array>
          </mxGeometry>
        </mxCell>
        <mxCell id="ZkMdfGaGYWbonD-F4Da_-55" value="" style="endArrow=none;html=1;rounded=0;fontSize=14;strokeColor=default;strokeWidth=1.5;entryX=0;entryY=0.5;entryDx=0;entryDy=0;exitX=1;exitY=0.3333333333333333;exitDx=0;exitDy=0;exitPerimeter=0;" parent="1" source="6IoVu-vz7xidwQ04EuJD-2" target="21wXZtojkiIjRj_W1PwF-1" edge="1">
          <mxGeometry width="50" height="50" relative="1" as="geometry">
            <mxPoint x="340" y="260" as="sourcePoint" />
            <mxPoint x="390" y="210" as="targetPoint" />
          </mxGeometry>
        </mxCell>
        <mxCell id="ZkMdfGaGYWbonD-F4Da_-56" value="" style="endArrow=none;html=1;rounded=0;fontSize=14;strokeColor=default;strokeWidth=1.5;entryX=0;entryY=0.5;entryDx=0;entryDy=0;exitX=1;exitY=0.3333333333333333;exitDx=0;exitDy=0;exitPerimeter=0;" parent="1" source="6IoVu-vz7xidwQ04EuJD-1" target="21wXZtojkiIjRj_W1PwF-2" edge="1">
          <mxGeometry width="50" height="50" relative="1" as="geometry">
            <mxPoint x="340" y="280" as="sourcePoint" />
            <mxPoint x="390" y="230" as="targetPoint" />
          </mxGeometry>
        </mxCell>
        <mxCell id="ZkMdfGaGYWbonD-F4Da_-57" value="" style="endArrow=none;html=1;rounded=0;fontSize=14;strokeColor=default;strokeWidth=1.5;entryX=0;entryY=0.5;entryDx=0;entryDy=0;exitX=1;exitY=0.3333333333333333;exitDx=0;exitDy=0;exitPerimeter=0;" parent="1" source="6IoVu-vz7xidwQ04EuJD-1" target="21wXZtojkiIjRj_W1PwF-3" edge="1">
          <mxGeometry width="50" height="50" relative="1" as="geometry">
            <mxPoint x="340" y="400" as="sourcePoint" />
            <mxPoint x="390" y="350" as="targetPoint" />
          </mxGeometry>
        </mxCell>
        <mxCell id="ZkMdfGaGYWbonD-F4Da_-58" value="" style="endArrow=none;html=1;rounded=0;fontSize=14;strokeColor=default;strokeWidth=1.5;entryX=0;entryY=0.5;entryDx=0;entryDy=0;exitX=1;exitY=0.3333333333333333;exitDx=0;exitDy=0;exitPerimeter=0;" parent="1" source="6IoVu-vz7xidwQ04EuJD-1" target="21wXZtojkiIjRj_W1PwF-4" edge="1">
          <mxGeometry width="50" height="50" relative="1" as="geometry">
            <mxPoint x="340" y="420" as="sourcePoint" />
            <mxPoint x="390" y="370" as="targetPoint" />
          </mxGeometry>
        </mxCell>
        <mxCell id="ZkMdfGaGYWbonD-F4Da_-59" value="" style="endArrow=none;html=1;rounded=0;fontSize=14;strokeColor=default;strokeWidth=1.5;exitX=0;exitY=0.5;exitDx=0;exitDy=0;" parent="1" source="21wXZtojkiIjRj_W1PwF-5" edge="1">
          <mxGeometry width="50" height="50" relative="1" as="geometry">
            <mxPoint x="340" y="420" as="sourcePoint" />
            <mxPoint x="70" y="360" as="targetPoint" />
          </mxGeometry>
        </mxCell>
        <mxCell id="ZkMdfGaGYWbonD-F4Da_-60" value="" style="endArrow=none;html=1;rounded=0;fontSize=14;strokeColor=default;strokeWidth=1.5;exitX=0;exitY=0.5;exitDx=0;exitDy=0;" parent="1" source="ZkMdfGaGYWbonD-F4Da_-23" edge="1">
          <mxGeometry width="50" height="50" relative="1" as="geometry">
            <mxPoint x="340" y="480" as="sourcePoint" />
            <mxPoint x="70" y="360" as="targetPoint" />
          </mxGeometry>
        </mxCell>
        <mxCell id="ZkMdfGaGYWbonD-F4Da_-61" value="" style="endArrow=none;html=1;rounded=0;fontSize=14;strokeColor=default;strokeWidth=1.5;exitX=0;exitY=0.5;exitDx=0;exitDy=0;" parent="1" source="ZkMdfGaGYWbonD-F4Da_-25" edge="1">
          <mxGeometry width="50" height="50" relative="1" as="geometry">
            <mxPoint x="170" y="580" as="sourcePoint" />
            <mxPoint x="70" y="360" as="targetPoint" />
          </mxGeometry>
        </mxCell>
        <mxCell id="ZkMdfGaGYWbonD-F4Da_-63" value="" style="endArrow=none;html=1;rounded=0;fontSize=14;strokeColor=default;strokeWidth=1.5;entryX=0;entryY=0.5;entryDx=0;entryDy=0;exitX=1;exitY=0.3333333333333333;exitDx=0;exitDy=0;exitPerimeter=0;" parent="1" source="6IoVu-vz7xidwQ04EuJD-2" target="ZkMdfGaGYWbonD-F4Da_-25" edge="1">
          <mxGeometry width="50" height="50" relative="1" as="geometry">
            <mxPoint x="70" y="580" as="sourcePoint" />
            <mxPoint x="290" y="540" as="targetPoint" />
          </mxGeometry>
        </mxCell>
        <mxCell id="ZkMdfGaGYWbonD-F4Da_-64" value="" style="endArrow=none;html=1;rounded=0;fontSize=14;strokeColor=default;strokeWidth=1.5;exitX=1;exitY=0.3333333333333333;exitDx=0;exitDy=0;exitPerimeter=0;entryX=0;entryY=0.5;entryDx=0;entryDy=0;" parent="1" source="6IoVu-vz7xidwQ04EuJD-2" target="ZkMdfGaGYWbonD-F4Da_-40" edge="1">
          <mxGeometry width="50" height="50" relative="1" as="geometry">
            <mxPoint x="70" y="580" as="sourcePoint" />
            <mxPoint x="230" y="510" as="targetPoint" />
          </mxGeometry>
        </mxCell>
        <mxCell id="ZkMdfGaGYWbonD-F4Da_-65" value="" style="endArrow=none;html=1;rounded=0;fontSize=14;strokeColor=default;strokeWidth=1.5;entryX=0;entryY=0.5;entryDx=0;entryDy=0;exitX=1;exitY=0.3333333333333333;exitDx=0;exitDy=0;exitPerimeter=0;" parent="1" source="6IoVu-vz7xidwQ04EuJD-2" target="grchjJS3_pt_iHH_Tu_R-48" edge="1">
          <mxGeometry width="50" height="50" relative="1" as="geometry">
            <mxPoint x="310" y="480" as="sourcePoint" />
            <mxPoint x="360" y="430" as="targetPoint" />
          </mxGeometry>
        </mxCell>
        <mxCell id="ZkMdfGaGYWbonD-F4Da_-66" value="" style="endArrow=none;html=1;rounded=0;fontSize=14;strokeColor=default;strokeWidth=1.5;exitX=1;exitY=0.3333333333333333;exitDx=0;exitDy=0;exitPerimeter=0;entryX=-0.003;entryY=0.54;entryDx=0;entryDy=0;entryPerimeter=0;" parent="1" source="6IoVu-vz7xidwQ04EuJD-2" target="21wXZtojkiIjRj_W1PwF-4" edge="1">
          <mxGeometry width="50" height="50" relative="1" as="geometry">
            <mxPoint x="310" y="480" as="sourcePoint" />
            <mxPoint x="200" y="310" as="targetPoint" />
          </mxGeometry>
        </mxCell>
        <mxCell id="ZkMdfGaGYWbonD-F4Da_-67" value="" style="endArrow=none;html=1;rounded=0;fontSize=14;strokeColor=default;strokeWidth=1.5;entryX=-0.005;entryY=0.549;entryDx=0;entryDy=0;entryPerimeter=0;exitX=1;exitY=0.3333333333333333;exitDx=0;exitDy=0;exitPerimeter=0;" parent="1" source="6IoVu-vz7xidwQ04EuJD-2" target="21wXZtojkiIjRj_W1PwF-3" edge="1">
          <mxGeometry width="50" height="50" relative="1" as="geometry">
            <mxPoint x="360" y="400" as="sourcePoint" />
            <mxPoint x="410" y="350" as="targetPoint" />
          </mxGeometry>
        </mxCell>
        <mxCell id="ZkMdfGaGYWbonD-F4Da_-68" value="" style="endArrow=none;html=1;rounded=0;fontSize=14;strokeColor=default;strokeWidth=1.5;entryX=0;entryY=0.5;entryDx=0;entryDy=0;exitX=1;exitY=0.3333333333333333;exitDx=0;exitDy=0;exitPerimeter=0;" parent="1" source="6IoVu-vz7xidwQ04EuJD-2" target="21wXZtojkiIjRj_W1PwF-2" edge="1">
          <mxGeometry width="50" height="50" relative="1" as="geometry">
            <mxPoint x="70" y="580" as="sourcePoint" />
            <mxPoint x="390" y="330" as="targetPoint" />
          </mxGeometry>
        </mxCell>
        <mxCell id="ZkMdfGaGYWbonD-F4Da_-69" value="&lt;b&gt;Payment&lt;/b&gt;" style="text;html=1;strokeColor=none;fillColor=none;align=center;verticalAlign=middle;whiteSpace=wrap;rounded=0;fontSize=14;" parent="1" vertex="1">
          <mxGeometry x="230" y="674" width="60" height="30" as="geometry" />
        </mxCell>
        <mxCell id="ZkMdfGaGYWbonD-F4Da_-70" value="" style="ellipse;whiteSpace=wrap;html=1;fillColor=#dae8fc;strokeColor=#6c8ebf;strokeWidth=2;" parent="1" vertex="1">
          <mxGeometry x="200" y="730" width="120" height="50" as="geometry" />
        </mxCell>
        <mxCell id="ZkMdfGaGYWbonD-F4Da_-71" value="" style="ellipse;whiteSpace=wrap;html=1;strokeColor=#b85450;strokeWidth=2;fillColor=#f8cecc;" parent="1" vertex="1">
          <mxGeometry x="445" y="740" width="110" height="40" as="geometry" />
        </mxCell>
        <mxCell id="ZkMdfGaGYWbonD-F4Da_-72" value="" style="ellipse;whiteSpace=wrap;html=1;strokeColor=#b85450;strokeWidth=2;fillColor=#f8cecc;" parent="1" vertex="1">
          <mxGeometry x="445" y="790" width="110" height="40" as="geometry" />
        </mxCell>
        <mxCell id="ZkMdfGaGYWbonD-F4Da_-75" value="&lt;b&gt;Cash&lt;/b&gt;" style="text;html=1;strokeColor=none;fillColor=none;align=center;verticalAlign=middle;whiteSpace=wrap;rounded=0;fontSize=14;" parent="1" vertex="1">
          <mxGeometry x="470" y="745" width="60" height="30" as="geometry" />
        </mxCell>
        <mxCell id="ZkMdfGaGYWbonD-F4Da_-76" value="&lt;font style=&quot;font-size: 13px&quot;&gt;&lt;b&gt;Online Payment&lt;/b&gt;&lt;/font&gt;" style="text;html=1;strokeColor=none;fillColor=none;align=center;verticalAlign=middle;whiteSpace=wrap;rounded=0;fontSize=14;" parent="1" vertex="1">
          <mxGeometry x="445" y="795" width="110" height="30" as="geometry" />
        </mxCell>
        <mxCell id="ZkMdfGaGYWbonD-F4Da_-77" value="" style="endArrow=none;html=1;rounded=0;fontSize=13;strokeColor=default;strokeWidth=1.5;entryX=0;entryY=0.5;entryDx=0;entryDy=0;exitX=1;exitY=0.3333333333333333;exitDx=0;exitDy=0;exitPerimeter=0;" parent="1" source="6IoVu-vz7xidwQ04EuJD-2" target="ZkMdfGaGYWbonD-F4Da_-26" edge="1">
          <mxGeometry width="50" height="50" relative="1" as="geometry">
            <mxPoint x="70" y="570" as="sourcePoint" />
            <mxPoint x="180" y="690" as="targetPoint" />
          </mxGeometry>
        </mxCell>
        <mxCell id="ZkMdfGaGYWbonD-F4Da_-78" value="&lt;b&gt;Balance Account&lt;/b&gt;" style="text;html=1;strokeColor=none;fillColor=none;align=center;verticalAlign=middle;whiteSpace=wrap;rounded=0;fontSize=13;" parent="1" vertex="1">
          <mxGeometry x="204" y="745" width="110" height="20" as="geometry" />
        </mxCell>
        <mxCell id="ZkMdfGaGYWbonD-F4Da_-79" value="" style="endArrow=none;html=1;rounded=0;fontSize=13;strokeColor=default;strokeWidth=1.5;entryX=0;entryY=0.5;entryDx=0;entryDy=0;exitX=1;exitY=0.3333333333333333;exitDx=0;exitDy=0;exitPerimeter=0;" parent="1" source="6IoVu-vz7xidwQ04EuJD-1" target="ZkMdfGaGYWbonD-F4Da_-70" edge="1">
          <mxGeometry width="50" height="50" relative="1" as="geometry">
            <mxPoint x="80" y="360" as="sourcePoint" />
            <mxPoint x="180" y="745" as="targetPoint" />
          </mxGeometry>
        </mxCell>
        <mxCell id="ZkMdfGaGYWbonD-F4Da_-80" value="" style="ellipse;whiteSpace=wrap;html=1;strokeColor=#b85450;strokeWidth=2;fillColor=#f8cecc;" parent="1" vertex="1">
          <mxGeometry x="205" y="890" width="110" height="40" as="geometry" />
        </mxCell>
        <mxCell id="ZkMdfGaGYWbonD-F4Da_-81" value="&lt;font size=&quot;1&quot;&gt;&lt;b style=&quot;font-size: 14px&quot;&gt;Withdraw&lt;/b&gt;&lt;/font&gt;" style="text;html=1;strokeColor=none;fillColor=none;align=center;verticalAlign=middle;whiteSpace=wrap;rounded=0;fontSize=13;" parent="1" vertex="1">
          <mxGeometry x="224" y="895" width="60" height="30" as="geometry" />
        </mxCell>
        <mxCell id="ZkMdfGaGYWbonD-F4Da_-82" value="&lt;div align=&quot;justify&quot;&gt;&lt;pre class=&quot;tw-data-text tw-text-large tw-ta&quot; id=&quot;tw-target-text&quot; style=&quot;text-align: left&quot; dir=&quot;ltr&quot;&gt;&lt;span class=&quot;Y2IQFc&quot; lang=&quot;en&quot;&gt;Money can be &lt;br&gt;withdrawn after &lt;br&gt;the balance is &lt;br&gt;1200tk&lt;/span&gt;&lt;/pre&gt;&lt;/div&gt;" style="rounded=0;whiteSpace=wrap;html=1;fontSize=14;dashed=1;strokeWidth=1.5;" parent="1" vertex="1">
          <mxGeometry x="290" y="810" width="146" height="70" as="geometry" />
        </mxCell>
        <mxCell id="ZkMdfGaGYWbonD-F4Da_-84" value="" style="endArrow=none;dashed=1;html=1;rounded=0;fontSize=14;strokeColor=default;strokeWidth=1.5;entryX=0.5;entryY=0;entryDx=0;entryDy=0;startArrow=open;startFill=0;" parent="1" target="ZkMdfGaGYWbonD-F4Da_-80" edge="1">
          <mxGeometry width="50" height="50" relative="1" as="geometry">
            <mxPoint x="260" y="780" as="sourcePoint" />
            <mxPoint x="430" y="740" as="targetPoint" />
          </mxGeometry>
        </mxCell>
        <mxCell id="ZkMdfGaGYWbonD-F4Da_-85" value="" style="endArrow=none;dashed=1;html=1;rounded=0;fontSize=14;strokeColor=default;strokeWidth=1.5;exitX=0;exitY=0.429;exitDx=0;exitDy=0;exitPerimeter=0;" parent="1" source="ZkMdfGaGYWbonD-F4Da_-82" edge="1">
          <mxGeometry width="50" height="50" relative="1" as="geometry">
            <mxPoint x="270" y="880" as="sourcePoint" />
            <mxPoint x="260" y="840" as="targetPoint" />
          </mxGeometry>
        </mxCell>
        <mxCell id="gYtBE33lhV6XI0gzwACO-1" value="&lt;font size=&quot;1&quot;&gt;&lt;b style=&quot;font-size: 14px&quot;&gt;extend&lt;/b&gt;&lt;/font&gt;" style="text;html=1;align=center;verticalAlign=middle;whiteSpace=wrap;rounded=0;" vertex="1" parent="1">
          <mxGeometry x="352" y="140" width="64" height="25" as="geometry" />
        </mxCell>
        <mxCell id="gYtBE33lhV6XI0gzwACO-2" value="&lt;font size=&quot;1&quot;&gt;&lt;b style=&quot;font-size: 14px&quot;&gt;extend&lt;/b&gt;&lt;/font&gt;" style="text;html=1;align=center;verticalAlign=middle;whiteSpace=wrap;rounded=0;" vertex="1" parent="1">
          <mxGeometry x="350" y="195" width="64" height="25" as="geometry" />
        </mxCell>
        <mxCell id="gYtBE33lhV6XI0gzwACO-3" value="" style="endArrow=block;html=1;rounded=0;exitX=0.018;exitY=0.35;exitDx=0;exitDy=0;exitPerimeter=0;entryX=1;entryY=0.5;entryDx=0;entryDy=0;startArrow=none;startFill=0;endFill=0;strokeWidth=1.5;" edge="1" parent="1" source="ZkMdfGaGYWbonD-F4Da_-71" target="ZkMdfGaGYWbonD-F4Da_-26">
          <mxGeometry width="50" height="50" relative="1" as="geometry">
            <mxPoint x="420" y="710" as="sourcePoint" />
            <mxPoint x="470" y="660" as="targetPoint" />
          </mxGeometry>
        </mxCell>
        <mxCell id="gYtBE33lhV6XI0gzwACO-5" value="" style="endArrow=none;html=1;rounded=0;exitX=0;exitY=0.5;exitDx=0;exitDy=0;strokeWidth=1.5;" edge="1" parent="1" source="ZkMdfGaGYWbonD-F4Da_-76">
          <mxGeometry width="50" height="50" relative="1" as="geometry">
            <mxPoint x="370" y="730" as="sourcePoint" />
            <mxPoint x="380" y="720" as="targetPoint" />
          </mxGeometry>
        </mxCell>
      </root>
    </mxGraphModel>
  </diagram>
</mxfile>
